<svg width="18" height="20" viewBox="0 0 18 20" fill="none" xmlns="http://www.w3.org/2000/svg">
<path d="M12 15H17L15.595 13.595C15.4064 13.4063 15.2567 13.1822 15.1546 12.9357C15.0525 12.6891 15 12.4249 15 12.158V9C15.0002 7.75894 14.6156 6.54834 13.8993 5.53489C13.1829 4.52144 12.17 3.75496 11 3.341V3C11 2.46957 10.7893 1.96086 10.4142 1.58579C10.0392 1.21071 9.53046 1 9.00003 1C8.4696 1 7.96089 1.21071 7.58582 1.58579C7.21074 1.96086 7.00003 2.46957 7.00003 3V3.341C4.67003 4.165 3.00003 6.388 3.00003 9V12.159C3.00003 12.697 2.78603 13.214 2.40503 13.595L1.00003 15H6.00003M12 15V16C12 16.7956 11.684 17.5587 11.1214 18.1213C10.5587 18.6839 9.79568 19 9.00003 19C8.20438 19 7.44132 18.6839 6.87871 18.1213C6.3161 17.5587 6.00003 16.7956 6.00003 16V15M12 15H6.00003" stroke="#16A34A" stroke-width="2" stroke-linecap="round" stroke-linejoin="round"/>
</svg>
