<svg width="17" height="17" viewBox="0 0 17 17" fill="none" xmlns="http://www.w3.org/2000/svg">
<path d="M6.38584 12.5H10.28M8.33334 0.833313V1.66665M13.6367 3.02998L13.0475 3.61915M15.8333 8.33331H15M1.66668 8.33331H0.833344M3.61918 3.61915L3.03001 3.02998M5.38668 11.28C4.80407 10.6972 4.40734 9.95479 4.24666 9.14656C4.08598 8.33834 4.16855 7.50062 4.48395 6.73932C4.79935 5.97803 5.3334 5.32735 6.01858 4.86956C6.70376 4.41177 7.5093 4.16742 8.33334 4.16742C9.15739 4.16742 9.96292 4.41177 10.6481 4.86956C11.3333 5.32735 11.8673 5.97803 12.1827 6.73932C12.4981 7.50062 12.5807 8.33834 12.42 9.14656C12.2593 9.95479 11.8626 10.6972 11.28 11.28L10.8233 11.7358C10.5623 11.9969 10.3552 12.3069 10.2139 12.6481C10.0726 12.9892 9.99996 13.3549 10 13.7241V14.1666C10 14.6087 9.82441 15.0326 9.51185 15.3452C9.19929 15.6577 8.77537 15.8333 8.33334 15.8333C7.89132 15.8333 7.46739 15.6577 7.15483 15.3452C6.84227 15.0326 6.66668 14.6087 6.66668 14.1666V13.7241C6.66668 12.9783 6.37001 12.2625 5.84334 11.7358L5.38668 11.28Z" stroke="#334155" stroke-width="1.66667" stroke-linecap="round" stroke-linejoin="round"/>
</svg>
