<svg width="14" height="14" viewBox="0 0 14 14" fill="none" xmlns="http://www.w3.org/2000/svg">
<path d="M4.00002 3.33329V0.666626M9.33335 3.33329V0.666626M3.33335 5.99996H10M2.00002 12.6666H11.3334C11.687 12.6666 12.0261 12.5262 12.2762 12.2761C12.5262 12.0261 12.6667 11.6869 12.6667 11.3333V3.33329C12.6667 2.97967 12.5262 2.64053 12.2762 2.39048C12.0261 2.14044 11.687 1.99996 11.3334 1.99996H2.00002C1.6464 1.99996 1.30726 2.14044 1.05721 2.39048C0.807163 2.64053 0.666687 2.97967 0.666687 3.33329V11.3333C0.666687 11.6869 0.807163 12.0261 1.05721 12.2761C1.30726 12.5262 1.6464 12.6666 2.00002 12.6666Z" stroke="white" stroke-width="1.33333" stroke-linecap="round" stroke-linejoin="round"/>
</svg>
