<svg width="17" height="17" viewBox="0 0 17 17" fill="none" xmlns="http://www.w3.org/2000/svg">
<path d="M5.00001 4.16683V0.833496M11.6667 4.16683V0.833496M4.16668 7.50016H12.5M2.50001 15.8335H14.1667C14.6087 15.8335 15.0326 15.6579 15.3452 15.3453C15.6577 15.0328 15.8333 14.6089 15.8333 14.1668V4.16683C15.8333 3.7248 15.6577 3.30088 15.3452 2.98832C15.0326 2.67576 14.6087 2.50016 14.1667 2.50016H2.50001C2.05798 2.50016 1.63406 2.67576 1.3215 2.98832C1.00894 3.30088 0.833344 3.7248 0.833344 4.16683V14.1668C0.833344 14.6089 1.00894 15.0328 1.3215 15.3453C1.63406 15.6579 2.05798 15.8335 2.50001 15.8335Z" stroke="#B01219" stroke-width="1.66667" stroke-linecap="round" stroke-linejoin="round"/>
</svg>
