<svg width="14" height="14" viewBox="0 0 14 14" fill="none" xmlns="http://www.w3.org/2000/svg">
<path d="M4.66669 6.66663L6.00002 7.99996L8.66669 5.33329M12.6667 6.66663C12.6667 7.45456 12.5115 8.23477 12.21 8.96273C11.9084 9.69068 11.4665 10.3521 10.9093 10.9093C10.3522 11.4664 9.69074 11.9084 8.96279 12.2099C8.23483 12.5114 7.45462 12.6666 6.66669 12.6666C5.87876 12.6666 5.09854 12.5114 4.37059 12.2099C3.64263 11.9084 2.9812 11.4664 2.42405 10.9093C1.86689 10.3521 1.42494 9.69068 1.12341 8.96273C0.821882 8.23477 0.666687 7.45456 0.666687 6.66663C0.666687 5.07533 1.29883 3.5492 2.42405 2.42399C3.54926 1.29877 5.07539 0.666626 6.66669 0.666626C8.25799 0.666626 9.78411 1.29877 10.9093 2.42399C12.0345 3.5492 12.6667 5.07533 12.6667 6.66663Z" stroke="#0B6B3A" stroke-width="1.33333" stroke-linecap="round" stroke-linejoin="round"/>
</svg>
