<svg width="20" height="17" viewBox="0 0 20 17" fill="none" xmlns="http://www.w3.org/2000/svg">
<path d="M1 11.0488C1 12.1097 1.42143 13.1271 2.17157 13.8772C2.92172 14.6274 3.93913 15.0488 5 15.0488H14C14.6608 15.0488 15.3151 14.9178 15.925 14.6634C16.5348 14.409 17.0882 14.0362 17.5532 13.5666C18.0181 13.097 18.3853 12.5399 18.6336 11.9275C18.8819 11.3151 19.0064 10.6596 18.9997 9.9988C18.9931 9.33802 18.8556 8.6851 18.5951 8.07779C18.3346 7.47049 17.9563 6.92084 17.4821 6.46064C17.0079 6.00043 16.4471 5.63879 15.8323 5.39663C15.2174 5.15447 14.5607 5.03659 13.9 5.0498C13.7734 4.39685 13.5178 3.7757 13.1483 3.22271C12.7787 2.66971 12.3026 2.19597 11.7477 1.82921C11.1928 1.46245 10.5704 1.21003 9.91682 1.08672C9.26323 0.963405 8.59162 0.971682 7.94127 1.11106C7.29092 1.25044 6.6749 1.51812 6.12924 1.89845C5.58359 2.27877 5.11927 2.7641 4.76345 3.32604C4.40763 3.88797 4.16745 4.51523 4.05696 5.17111C3.94648 5.82698 3.96791 6.49831 4.12 7.1458C3.23422 7.34576 2.44281 7.84108 1.87581 8.55037C1.30881 9.25966 0.999954 10.1407 1 11.0488Z" stroke="#16A34A" stroke-width="2" stroke-linecap="round" stroke-linejoin="round"/>
</svg>
