<svg width="17" height="17" viewBox="0 0 17 17" fill="none" xmlns="http://www.w3.org/2000/svg">
<path d="M8.33331 5.00004V15.8334M8.33331 5.00004V3.33337C8.33331 3.00374 8.43106 2.68151 8.6142 2.40742C8.79733 2.13334 9.05763 1.91972 9.36217 1.79358C9.66672 1.66743 10.0018 1.63442 10.3251 1.69873C10.6484 1.76304 10.9454 1.92178 11.1785 2.15486C11.4116 2.38795 11.5703 2.68492 11.6346 3.00822C11.6989 3.33153 11.6659 3.66664 11.5398 3.97118C11.4136 4.27572 11.2 4.53602 10.9259 4.71916C10.6518 4.90229 10.3296 5.00004 9.99998 5.00004H8.33331ZM8.33331 5.00004V2.91671C8.33331 2.50466 8.21113 2.10187 7.98221 1.75927C7.75329 1.41667 7.42792 1.14964 7.04724 0.991959C6.66656 0.834277 6.24767 0.79302 5.84354 0.873406C5.43941 0.953792 5.0682 1.15221 4.77684 1.44357C4.48548 1.73493 4.28706 2.10614 4.20668 2.51027C4.12629 2.9144 4.16755 3.33329 4.32523 3.71397C4.48291 4.09464 4.74994 4.42002 5.09254 4.64894C5.43514 4.87786 5.83794 5.00004 6.24998 5.00004H8.33331ZM2.49998 8.33337H14.1666M2.49998 8.33337C2.05795 8.33337 1.63403 8.15778 1.32147 7.84522C1.00891 7.53266 0.833313 7.10874 0.833313 6.66671C0.833313 6.22468 1.00891 5.80076 1.32147 5.4882C1.63403 5.17564 2.05795 5.00004 2.49998 5.00004H14.1666C14.6087 5.00004 15.0326 5.17564 15.3452 5.4882C15.6577 5.80076 15.8333 6.22468 15.8333 6.66671C15.8333 7.10874 15.6577 7.53266 15.3452 7.84522C15.0326 8.15778 14.6087 8.33337 14.1666 8.33337M2.49998 8.33337V14.1667C2.49998 14.6087 2.67557 15.0327 2.98813 15.3452C3.3007 15.6578 3.72462 15.8334 4.16665 15.8334H12.5C12.942 15.8334 13.3659 15.6578 13.6785 15.3452C13.9911 15.0327 14.1666 14.6087 14.1666 14.1667V8.33337" stroke="#16A34A" stroke-width="1.66667" stroke-linecap="round" stroke-linejoin="round"/>
</svg>
