<svg width="17" height="17" viewBox="0 0 17 17" fill="none" xmlns="http://www.w3.org/2000/svg">
<path d="M8.33331 4.99998V15.8333M8.33331 4.99998V3.33331C8.33331 3.00368 8.43106 2.68145 8.6142 2.40736C8.79733 2.13328 9.05763 1.91966 9.36217 1.79351C9.66672 1.66737 10.0018 1.63436 10.3251 1.69867C10.6484 1.76298 10.9454 1.92171 11.1785 2.1548C11.4116 2.38789 11.5703 2.68486 11.6346 3.00816C11.6989 3.33147 11.6659 3.66658 11.5398 3.97112C11.4136 4.27566 11.2 4.53596 10.9259 4.7191C10.6518 4.90223 10.3296 4.99998 9.99998 4.99998H8.33331ZM8.33331 4.99998V2.91665C8.33331 2.5046 8.21113 2.10181 7.98221 1.75921C7.75329 1.41661 7.42792 1.14958 7.04724 0.991898C6.66656 0.834216 6.24767 0.792959 5.84354 0.873345C5.43941 0.95373 5.0682 1.15215 4.77684 1.44351C4.48548 1.73487 4.28706 2.10608 4.20668 2.51021C4.12629 2.91434 4.16755 3.33322 4.32523 3.7139C4.48291 4.09458 4.74994 4.41996 5.09254 4.64888C5.43514 4.87779 5.83794 4.99998 6.24998 4.99998H8.33331ZM2.49998 8.33331H14.1666M2.49998 8.33331C2.05795 8.33331 1.63403 8.15772 1.32147 7.84516C1.00891 7.5326 0.833313 7.10867 0.833313 6.66665C0.833313 6.22462 1.00891 5.8007 1.32147 5.48814C1.63403 5.17558 2.05795 4.99998 2.49998 4.99998H14.1666C14.6087 4.99998 15.0326 5.17558 15.3452 5.48814C15.6577 5.8007 15.8333 6.22462 15.8333 6.66665C15.8333 7.10867 15.6577 7.5326 15.3452 7.84516C15.0326 8.15772 14.6087 8.33331 14.1666 8.33331M2.49998 8.33331V14.1666C2.49998 14.6087 2.67557 15.0326 2.98813 15.3452C3.3007 15.6577 3.72462 15.8333 4.16665 15.8333H12.5C12.942 15.8333 13.3659 15.6577 13.6785 15.3452C13.9911 15.0326 14.1666 14.6087 14.1666 14.1666V8.33331" stroke="#DC2626" stroke-width="1.66667" stroke-linecap="round" stroke-linejoin="round"/>
</svg>
