<svg width="27" height="24" viewBox="0 0 27 24" fill="none" xmlns="http://www.w3.org/2000/svg">
<path d="M3.0907 3.09064C2.53354 3.64779 2.09158 4.30923 1.79004 5.03719C1.48851 5.76514 1.33331 6.54537 1.33331 7.3333C1.33331 8.12124 1.48851 8.90146 1.79004 9.62942C2.09158 10.3574 2.53354 11.0188 3.0907 11.576L13.3334 21.8186L23.576 11.576C24.7013 10.4507 25.3334 8.92461 25.3334 7.3333C25.3334 5.742 24.7013 4.21586 23.576 3.09064C22.4508 1.96541 20.9247 1.33327 19.3334 1.33327C17.7421 1.33327 16.2159 1.96541 15.0907 3.09064L13.3334 4.84797L11.576 3.09064C11.0189 2.53348 10.3574 2.09151 9.62948 1.78998C8.90152 1.48845 8.1213 1.33325 7.33337 1.33325C6.54543 1.33325 5.76521 1.48845 5.03725 1.78998C4.30929 2.09151 3.64785 2.53348 3.0907 3.09064Z" stroke="white" stroke-width="2.66667" stroke-linecap="round" stroke-linejoin="round"/>
</svg>
