<svg width="27" height="27" viewBox="0 0 27 27" fill="none" xmlns="http://www.w3.org/2000/svg">
<path d="M21.8187 4.84816L17.104 9.56283M21.8187 4.84816C19.5683 2.59773 16.516 1.3335 13.3334 1.3335C10.1508 1.3335 7.09848 2.59773 4.84804 4.84816M21.8187 4.84816C24.0691 7.0986 25.3334 10.1509 25.3334 13.3335C25.3334 14.9094 25.023 16.4698 24.4199 17.9257C23.8169 19.3816 22.933 20.7045 21.8187 21.8188M17.104 9.56283C16.1038 8.56264 14.7479 8.00016 13.3334 8.00016C11.9189 8.00016 10.5629 8.56264 9.56271 9.56283M17.104 9.56283C18.1042 10.563 18.6667 11.919 18.6667 13.3335C18.6667 14.748 18.1042 16.104 17.104 17.1042M17.104 17.1042L21.8187 21.8188M17.104 17.1042C16.1038 18.1044 14.7479 18.6668 13.3334 18.6668C11.9189 18.6668 10.5629 18.1044 9.56271 17.1042M21.8187 21.8188C20.7044 22.9331 19.3815 23.817 17.9256 24.4201C16.4697 25.0231 14.9092 25.3335 13.3334 25.3335C11.7575 25.3335 10.1971 25.0231 8.74117 24.4201C7.28527 23.817 5.96234 22.9331 4.84804 21.8188M9.56271 9.56283L4.84804 4.84816M9.56271 9.56283C8.56251 10.563 8.00004 11.919 8.00004 13.3335C8.00004 14.748 8.56251 16.104 9.56271 17.1042M4.84804 4.84816C2.5976 7.0986 1.33337 10.1509 1.33337 13.3335C1.33337 14.9094 1.64376 16.4698 2.24682 17.9257C2.84988 19.3816 3.73374 20.7045 4.84804 21.8188M9.56271 17.1042L4.84804 21.8188" stroke="#16A34A" stroke-width="2.66667" stroke-linecap="round" stroke-linejoin="round"/>
</svg>
