<svg width="17" height="14" viewBox="0 0 17 14" fill="none" xmlns="http://www.w3.org/2000/svg">
<path d="M0.833435 3.3335L7.40844 7.71683C7.68232 7.89956 8.00419 7.99708 8.33343 7.99708C8.66268 7.99708 8.98455 7.89956 9.25843 7.71683L15.8334 3.3335M2.5001 12.5002H14.1668C14.6088 12.5002 15.0327 12.3246 15.3453 12.012C15.6578 11.6994 15.8334 11.2755 15.8334 10.8335V2.50016C15.8334 2.05814 15.6578 1.63421 15.3453 1.32165C15.0327 1.00909 14.6088 0.833496 14.1668 0.833496H2.5001C2.05807 0.833496 1.63415 1.00909 1.32159 1.32165C1.00903 1.63421 0.833435 2.05814 0.833435 2.50016V10.8335C0.833435 11.2755 1.00903 11.6994 1.32159 12.012C1.63415 12.3246 2.05807 12.5002 2.5001 12.5002Z" stroke="white" stroke-width="1.66667" stroke-linecap="round" stroke-linejoin="round"/>
</svg>
