<svg width="17" height="17" viewBox="0 0 17 17" fill="none" xmlns="http://www.w3.org/2000/svg">
<path d="M5.83331 14.1667V9.16671C5.83331 8.72468 5.65772 8.30076 5.34516 7.9882C5.0326 7.67564 4.60867 7.50004 4.16665 7.50004H2.49998C2.05795 7.50004 1.63403 7.67564 1.32147 7.9882C1.00891 8.30076 0.833313 8.72468 0.833313 9.16671V14.1667C0.833313 14.6087 1.00891 15.0327 1.32147 15.3452C1.63403 15.6578 2.05795 15.8334 2.49998 15.8334H4.16665C4.60867 15.8334 5.0326 15.6578 5.34516 15.3452C5.65772 15.0327 5.83331 14.6087 5.83331 14.1667ZM5.83331 14.1667V5.83337C5.83331 5.39135 6.00891 4.96742 6.32147 4.65486C6.63403 4.3423 7.05795 4.16671 7.49998 4.16671H9.16665C9.60867 4.16671 10.0326 4.3423 10.3452 4.65486C10.6577 4.96742 10.8333 5.39135 10.8333 5.83337V14.1667M5.83331 14.1667C5.83331 14.6087 6.00891 15.0327 6.32147 15.3452C6.63403 15.6578 7.05795 15.8334 7.49998 15.8334H9.16665C9.60867 15.8334 10.0326 15.6578 10.3452 15.3452C10.6577 15.0327 10.8333 14.6087 10.8333 14.1667M10.8333 14.1667V2.50004C10.8333 2.05801 11.0089 1.63409 11.3215 1.32153C11.634 1.00897 12.058 0.833374 12.5 0.833374H14.1666C14.6087 0.833374 15.0326 1.00897 15.3452 1.32153C15.6577 1.63409 15.8333 2.05801 15.8333 2.50004V14.1667C15.8333 14.6087 15.6577 15.0327 15.3452 15.3452C15.0326 15.6578 14.6087 15.8334 14.1666 15.8334H12.5C12.058 15.8334 11.634 15.6578 11.3215 15.3452C11.0089 15.0327 10.8333 14.6087 10.8333 14.1667Z" stroke="#16A34A" stroke-width="1.66667" stroke-linecap="round" stroke-linejoin="round"/>
</svg>
