<svg width="15" height="15" viewBox="0 0 15 15" fill="none" xmlns="http://www.w3.org/2000/svg">
<path d="M7.50004 0.833328V1.66666M12.5 10.8333H14.1667M9.16671 10.8333H7.50004V14.1667M7.50004 4.99999V7.49999M7.50004 7.49999H7.50837M7.50004 7.49999H10.8417M10.8334 14.1667H14.1667M0.833374 7.49999H4.16671M14.1667 7.49999H14.175M1.66671 4.16666H3.33337C3.55439 4.16666 3.76635 4.07886 3.92263 3.92258C4.07891 3.7663 4.16671 3.55434 4.16671 3.33333V1.66666C4.16671 1.44565 4.07891 1.23369 3.92263 1.07741C3.76635 0.921126 3.55439 0.833328 3.33337 0.833328H1.66671C1.44569 0.833328 1.23373 0.921126 1.07745 1.07741C0.921172 1.23369 0.833374 1.44565 0.833374 1.66666V3.33333C0.833374 3.55434 0.921172 3.7663 1.07745 3.92258C1.23373 4.07886 1.44569 4.16666 1.66671 4.16666ZM11.6667 4.16666H13.3334C13.5544 4.16666 13.7663 4.07886 13.9226 3.92258C14.0789 3.7663 14.1667 3.55434 14.1667 3.33333V1.66666C14.1667 1.44565 14.0789 1.23369 13.9226 1.07741C13.7663 0.921126 13.5544 0.833328 13.3334 0.833328H11.6667C11.4457 0.833328 11.2337 0.921126 11.0775 1.07741C10.9212 1.23369 10.8334 1.44565 10.8334 1.66666V3.33333C10.8334 3.55434 10.9212 3.7663 11.0775 3.92258C11.2337 4.07886 11.4457 4.16666 11.6667 4.16666ZM1.66671 14.1667H3.33337C3.55439 14.1667 3.76635 14.0789 3.92263 13.9226C4.07891 13.7663 4.16671 13.5543 4.16671 13.3333V11.6667C4.16671 11.4456 4.07891 11.2337 3.92263 11.0774C3.76635 10.9211 3.55439 10.8333 3.33337 10.8333H1.66671C1.44569 10.8333 1.23373 10.9211 1.07745 11.0774C0.921172 11.2337 0.833374 11.4456 0.833374 11.6667V13.3333C0.833374 13.5543 0.921172 13.7663 1.07745 13.9226C1.23373 14.0789 1.44569 14.1667 1.66671 14.1667Z" stroke="#16A34A" stroke-width="1.66667" stroke-linecap="round" stroke-linejoin="round"/>
</svg>
