<svg width="17" height="17" viewBox="0 0 17 17" fill="none" xmlns="http://www.w3.org/2000/svg">
<path d="M14.1666 7.50004H2.49998M14.1666 7.50004C14.6087 7.50004 15.0326 7.67564 15.3452 7.9882C15.6577 8.30076 15.8333 8.72468 15.8333 9.16671V14.1667C15.8333 14.6087 15.6577 15.0327 15.3452 15.3452C15.0326 15.6578 14.6087 15.8334 14.1666 15.8334H2.49998C2.05795 15.8334 1.63403 15.6578 1.32147 15.3452C1.00891 15.0327 0.833313 14.6087 0.833313 14.1667V9.16671C0.833313 8.72468 1.00891 8.30076 1.32147 7.9882C1.63403 7.67564 2.05795 7.50004 2.49998 7.50004M14.1666 7.50004V5.83337C14.1666 5.39135 13.9911 4.96742 13.6785 4.65486C13.3659 4.3423 12.942 4.16671 12.5 4.16671M2.49998 7.50004V5.83337C2.49998 5.39135 2.67557 4.96742 2.98813 4.65486C3.3007 4.3423 3.72462 4.16671 4.16665 4.16671M12.5 4.16671V2.50004C12.5 2.05801 12.3244 1.63409 12.0118 1.32153C11.6993 1.00897 11.2753 0.833374 10.8333 0.833374H5.83331C5.39129 0.833374 4.96736 1.00897 4.6548 1.32153C4.34224 1.63409 4.16665 2.05801 4.16665 2.50004V4.16671M12.5 4.16671H4.16665" stroke="#16A34A" stroke-width="1.66667" stroke-linecap="round" stroke-linejoin="round"/>
</svg>
