<svg width="28" height="27" viewBox="0 0 28 27" fill="none" xmlns="http://www.w3.org/2000/svg">
<path d="M12.5173 2.2545C12.9173 1.0265 14.6547 1.0265 15.0533 2.2545L17.0787 8.4865C17.1658 8.75381 17.3353 8.98674 17.5628 9.15197C17.7903 9.3172 18.0642 9.40629 18.3453 9.4065H24.8987C26.1907 9.4065 26.7267 11.0598 25.6827 11.8198L20.3813 15.6705C20.1536 15.836 19.9841 16.0694 19.8972 16.3372C19.8103 16.605 19.8103 16.8934 19.8973 17.1612L21.9213 23.3932C22.3213 24.6225 20.9147 25.6438 19.8707 24.8838L14.5693 21.0332C14.3415 20.8675 14.067 20.7783 13.7853 20.7783C13.5037 20.7783 13.2292 20.8675 13.0013 21.0332L7.70001 24.8838C6.65601 25.6438 5.24934 24.6212 5.64934 23.3932L7.67334 17.1612C7.76038 16.8934 7.76043 16.605 7.67349 16.3372C7.58654 16.0694 7.41707 15.836 7.18934 15.6705L1.88801 11.8198C0.842678 11.0598 1.38134 9.4065 2.67201 9.4065H9.22401C9.50541 9.40657 9.77961 9.31761 10.0074 9.15236C10.2351 8.98711 10.4048 8.75403 10.492 8.4865L12.5173 2.2545Z" stroke="#16A34A" stroke-width="2.66667" stroke-linecap="round" stroke-linejoin="round"/>
</svg>
