<svg width="27" height="27" viewBox="0 0 27 27" fill="none" xmlns="http://www.w3.org/2000/svg">
<path d="M20.9976 16.9119C19.4411 17.6174 17.7519 17.9824 16.043 17.9824C14.334 17.9824 12.6448 17.6174 11.0883 16.9119M23.131 11.5439C20.6344 11.0916 18.3455 9.85965 16.5929 8.02512C14.8403 6.19058 13.7142 3.84781 13.3763 1.33325C7.41095 1.33325 2.35228 5.49325 1.33362 11.1013M1.33362 16.4693C2.04169 19.0915 3.6183 21.3959 5.80576 23.006C7.99321 24.6161 10.6621 25.4365 13.3763 25.3333C19.3416 25.3333 24.4003 21.1733 25.419 15.5653M8.95495 15.1226C9.22429 14.5839 9.37629 13.9759 9.37629 13.3333C9.37629 12.6906 9.22429 12.0826 8.95495 11.5439C8.55189 10.7381 7.88856 10.0919 7.07241 9.7101C6.25627 9.32831 5.33513 9.23324 4.45821 9.44032C3.5813 9.64739 2.79998 10.1445 2.24084 10.851C1.68169 11.5576 1.37748 12.4322 1.37748 13.3333C1.37748 14.2343 1.68169 15.1089 2.24084 15.8155C2.79998 16.522 3.5813 17.0191 4.45821 17.2262C5.33513 17.4333 6.25627 17.3382 7.07241 16.9564C7.88856 16.5746 8.55189 15.9284 8.95495 15.1226Z" stroke="white" stroke-width="2.66667" stroke-linecap="round" stroke-linejoin="round"/>
</svg>
