<svg width="20" height="18" viewBox="0 0 20 18" fill="none" xmlns="http://www.w3.org/2000/svg">
<path d="M19.1667 2.22222H15.5556V0.833333C15.5556 0.371528 15.184 0 14.7222 0H5.27778C4.81597 0 4.44444 0.371528 4.44444 0.833333V2.22222H0.833333C0.371528 2.22222 0 2.59375 0 3.05556V5C0 6.23958 0.78125 7.51389 2.14931 8.49653C3.24306 9.28472 4.57292 9.78472 5.96875 9.94444C7.05903 11.7535 8.33333 12.5 8.33333 12.5V15H6.66667C5.44097 15 4.44444 15.7188 4.44444 16.9444V17.3611C4.44444 17.5903 4.63194 17.7778 4.86111 17.7778H15.1389C15.3681 17.7778 15.5556 17.5903 15.5556 17.3611V16.9444C15.5556 15.7188 14.559 15 13.3333 15H11.6667V12.5C11.6667 12.5 12.941 11.7535 14.0313 9.94444C15.4306 9.78472 16.7604 9.28472 17.8507 8.49653C19.2153 7.51389 20 6.23958 20 5V3.05556C20 2.59375 19.6285 2.22222 19.1667 2.22222ZM3.44792 6.69444C2.60069 6.08333 2.22222 5.40278 2.22222 5V4.44444H4.45139C4.48611 5.57639 4.65278 6.56944 4.89583 7.4375C4.37153 7.25694 3.88194 7.00694 3.44792 6.69444ZM17.7778 5C17.7778 5.55903 17.1632 6.25347 16.5521 6.69444C16.1181 7.00694 15.625 7.25694 15.1007 7.4375C15.3438 6.56944 15.5104 5.57639 15.5451 4.44444H17.7778V5Z" fill="white"/>
</svg>
